<svg version="1.1" xmlns="http://www.w3.org/2000/svg" xmlns:xlink="http://www.w3.org/1999/xlink" width="76.09756" height="64.14634" viewBox="0,0,76.09756,64.14634"><g transform="translate(-282.54572,-148.33982)"><g stroke-miterlimit="10"><path d="M293.58696,180c0,-14.58752 11.82552,-26.41305 26.41304,-26.41305c14.58752,0 26.41305,11.82553 26.41305,26.41305c0,14.58752 -11.82553,26.41305 -26.41305,26.41305c-14.58752,0 -26.41304,-11.82552 -26.41304,-26.41305z" fill="none" stroke="#ffffff" stroke-width="5" stroke-linecap="butt"/><path d="M294.77017,183.92121c0,0 16.92432,-5.90924 25.18698,-5.97605c8.44506,-0.06829 24.94815,5.57065 24.94815,5.57065" fill="none" stroke="#ffffff" stroke-width="5" stroke-linecap="round"/><path d="M306.3373,158.53197c0,0 5.09727,14.59881 5.15491,21.72613c0.0589,7.28465 -4.80521,21.52011 -4.80521,21.52011" fill="none" stroke="#ffffff" stroke-width="5" stroke-linecap="round"/><path d="M334.38163,201.88933c0,0 -5.09727,-14.59881 -5.15491,-21.72613c-0.0589,-7.28465 4.80521,-21.52012 4.80521,-21.52012" fill="none" stroke="#ffffff" stroke-width="5" stroke-linecap="round"/><path d="M320,155.44444v49.11111" fill="none" stroke="#ffffff" stroke-width="5" stroke-linecap="round"/><path d="M282.54572,212.48616v-64.14634h76.09756v64.14634z" fill-opacity="0.00392" fill="#ffffff" stroke="none" stroke-width="0" stroke-linecap="butt"/></g></g></svg>